<?xml version="1.0" standalone="no"?>
<!DOCTYPE svg PUBLIC "-//W3C//DTD SVG 20010904//EN"
 "http://www.w3.org/TR/2001/REC-SVG-20010904/DTD/svg10.dtd">
<svg version="1.0" xmlns="http://www.w3.org/2000/svg"
 width="1600.000000pt" height="657.000000pt" viewBox="0 0 1600.000000 657.000000"
 preserveAspectRatio="xMidYMid meet">

<g transform="translate(0.000000,657.000000) scale(0.100000,-0.100000)"
fill="#000000" stroke="none">
<path d="M2109 4188 c-145 -243 -391 -654 -546 -912 l-281 -471 231 -5 c128
-3 239 -2 247 2 16 6 96 140 640 1058 223 377 265 445 276 444 8 -1 131 -204
534 -884 327 -552 363 -611 379 -618 9 -4 120 -5 247 -2 l230 5 -142 240 c-79
132 -149 249 -155 260 -68 113 -113 187 -169 280 -113 186 -597 999 -609 1023
l-12 22 -303 0 -302 0 -265 -442z"/>
<path d="M3430 4435 l0 -195 534 0 c417 0 537 -3 543 -12 4 -7 10 -332 13
-721 l5 -709 190 0 190 -1 5 719 5 719 543 3 542 2 0 195 0 195 -1285 0 -1285
0 0 -195z"/>
<path d="M6170 4435 l0 -195 1285 0 1285 0 0 195 0 195 -1285 0 -1285 0 0
-195z"/>
<path d="M8900 4436 c0 -225 -13 -198 115 -235 236 -69 450 -213 517 -348 83
-169 11 -336 -207 -478 -44 -29 -100 -62 -125 -73 -87 -39 -146 -61 -200 -77
-111 -33 -100 -7 -100 -231 l0 -197 73 7 c298 29 570 171 713 372 98 137 144
287 158 509 4 64 -13 213 -35 300 -61 250 -236 442 -505 557 -75 32 -245 74
-336 83 l-68 7 0 -196z"/>
<path d="M11295 4620 c-80 -12 -204 -47 -285 -80 -350 -144 -540 -433 -540
-818 1 -429 210 -726 606 -860 87 -29 248 -62 306 -62 l28 0 -2 198 -3 197
-45 13 c-90 27 -248 94 -331 140 -105 58 -213 163 -252 244 -57 118 -27 254
80 364 49 51 155 125 223 156 19 9 60 28 90 41 30 14 97 38 148 53 l92 29 0
197 0 198 -32 -1 c-18 -1 -55 -5 -83 -9z"/>
<path d="M11572 3713 l3 -918 195 0 195 0 3 918 2 917 -200 0 -200 0 2 -917z"/>
<path d="M12463 4620 c-45 -10 -122 -58 -164 -100 -201 -206 -227 -572 -59
-820 58 -85 146 -151 228 -171 21 -6 419 -10 942 -9 498 0 911 -3 918 -8 9 -6
12 -46 10 -163 l-3 -154 -1058 -3 -1057 -2 2 -198 3 -197 1035 -3 c755 -2
1054 0 1105 8 143 24 244 106 314 254 53 110 66 171 65 306 -1 95 -5 130 -27
201 -44 142 -135 258 -247 316 l-55 28 -935 5 -935 5 -3 154 c-2 117 1 156 10
163 7 4 487 8 1067 8 l1054 0 -7 61 c-3 34 -6 122 -6 195 l0 134 -1082 -1
c-596 -1 -1097 -4 -1115 -9z"/>
<path d="M2633 3969 c-89 -16 -147 -61 -184 -144 -41 -92 -25 -187 45 -263 50
-55 110 -82 181 -82 66 0 115 20 169 70 57 53 79 112 74 195 -9 145 -142 249
-285 224z"/>
<path d="M10062 3943 c-63 -26 -127 -98 -147 -167 -50 -172 106 -340 283 -306
191 36 265 257 137 408 -60 71 -184 100 -273 65z"/>
<path d="M6170 3350 l0 -560 1283 2 1282 3 3 197 2 198 -1082 2 -1083 3 0 160
0 160 1083 3 1082 2 0 195 0 195 -1285 0 -1285 0 0 -560z"/>
<path d="M10765 2301 c-44 -11 -73 -29 -122 -74 -94 -86 -125 -226 -83 -369
16 -54 68 -118 125 -153 46 -28 54 -30 154 -30 116 0 173 18 166 52 -2 10 -4
21 -4 25 -1 4 -18 0 -38 -8 -26 -11 -62 -15 -124 -12 -79 3 -91 6 -131 34 -25
19 -53 52 -68 80 -21 42 -25 62 -25 139 1 78 4 97 28 143 34 65 90 107 164
122 54 12 100 7 179 -15 18 -6 21 -2 20 19 -1 14 -7 31 -13 37 -14 14 -185 22
-228 10z"/>
<path d="M11287 2296 c-106 -39 -167 -117 -188 -240 -12 -74 -1 -185 24 -229
69 -125 168 -172 321 -153 141 18 236 148 236 325 0 125 -59 234 -154 283 -52
27 -183 35 -239 14z m206 -63 c64 -33 102 -92 116 -183 23 -138 -30 -266 -126
-306 -49 -21 -156 -18 -203 6 -154 79 -162 379 -12 472 19 12 48 25 66 29 41
11 122 2 159 -18z"/>
<path d="M6411 2278 c-5 -13 -53 -135 -106 -273 -53 -137 -103 -267 -111 -287
l-13 -38 33 0 c33 0 35 2 68 88 l34 87 136 3 136 3 34 -88 c32 -83 36 -88 66
-91 38 -4 40 8 16 65 -9 21 -20 47 -25 58 -27 70 -113 297 -147 385 l-40 105
-36 3 c-30 3 -38 -1 -45 -20z m133 -293 c13 -33 22 -63 19 -67 -6 -11 -223
-10 -223 0 0 6 83 241 106 302 4 9 20 -25 40 -80 19 -52 45 -122 58 -155z"/>
<path d="M6840 1990 l0 -310 30 0 30 0 2 268 3 269 125 -194 c69 -106 147
-227 173 -268 48 -75 49 -75 93 -75 l44 0 0 310 0 310 -36 0 -35 0 3 -265 c2
-146 0 -264 -4 -263 -7 3 -131 193 -268 411 l-73 117 -44 0 -43 0 0 -310z"/>
<path d="M7921 2278 c-5 -13 -55 -142 -111 -288 -56 -146 -106 -275 -111 -288
-8 -22 -7 -23 28 -20 36 3 38 5 60 68 43 123 23 111 179 108 l136 -3 32 -85
c31 -84 32 -85 69 -88 l37 -3 -20 53 c-11 29 -25 62 -29 73 -5 11 -49 126 -99
255 l-89 235 -36 3 c-31 3 -38 -1 -46 -20z m128 -275 c16 -43 27 -81 24 -85
-6 -12 -223 -10 -223 2 0 5 9 33 21 62 12 29 34 91 51 138 16 47 32 92 35 100
3 9 17 -18 34 -62 16 -43 42 -113 58 -155z"/>
<path d="M8350 1990 l0 -310 160 0 160 0 0 25 0 24 -127 3 -128 3 -3 283 -2
282 -30 0 -30 0 0 -310z"/>
<path d="M8660 2275 c0 -25 1 -25 90 -25 l90 0 0 -285 0 -285 30 0 30 0 2 283
3 282 93 3 c90 3 92 3 92 27 l0 25 -215 0 -215 0 0 -25z"/>
<path d="M9200 1990 l0 -310 165 0 165 0 0 25 0 24 -132 3 -133 3 -3 118 -3
117 116 0 115 0 0 25 0 25 -115 0 -116 0 3 113 3 112 123 3 122 3 0 24 0 25
-155 0 -155 0 0 -310z"/>
<path d="M9660 1990 l0 -310 30 0 30 0 2 271 3 271 124 -194 c240 -374 220
-348 269 -348 l42 0 0 310 0 310 -36 0 -36 0 4 -265 c1 -146 0 -265 -4 -265
-3 0 -26 32 -50 70 -24 39 -98 158 -166 265 l-124 195 -44 0 -44 0 0 -310z"/>
<path d="M11820 1990 l0 -310 30 0 30 0 1 273 c0 149 3 265 6 257 7 -21 91
-216 114 -265 10 -22 40 -89 67 -150 29 -66 55 -111 65 -113 16 -3 42 45 103
191 14 32 37 86 53 120 32 70 86 194 94 217 3 8 6 -108 6 -257 l1 -273 30 0
30 0 0 310 0 310 -40 0 -41 0 -33 -72 c-43 -94 -71 -155 -136 -303 -30 -66
-57 -124 -61 -129 -5 -5 -13 3 -18 17 -6 15 -20 48 -31 73 -12 25 -48 107 -81
182 -112 257 -97 232 -146 232 l-43 0 0 -310z"/>
<path d="M12630 1990 l0 -310 30 0 29 0 3 118 3 117 85 6 c60 3 97 12 127 27
107 56 135 209 54 295 -43 47 -81 57 -212 57 l-119 0 0 -310z m261 229 c35
-25 49 -55 49 -107 0 -49 -18 -81 -59 -109 -28 -19 -47 -23 -112 -23 l-79 0 0
128 c0 71 3 132 8 136 4 5 42 6 85 2 57 -4 86 -11 108 -27z"/>
<path d="M13123 2007 c-62 -160 -115 -300 -119 -309 -5 -15 0 -18 29 -18 34 0
37 3 55 53 11 28 25 69 31 90 l13 37 138 0 138 0 10 -27 c6 -16 21 -56 34 -90
22 -60 24 -63 57 -63 28 0 33 3 28 19 -2 10 -55 150 -117 310 l-113 291 -36 0
-36 0 -112 -293z m160 201 c2 -13 24 -75 47 -138 65 -177 72 -160 -59 -160
-85 0 -111 3 -111 13 0 7 18 60 39 118 22 57 45 123 53 147 14 47 23 53 31 20z"/>
<path d="M13650 1990 l0 -310 30 0 30 0 0 270 c0 149 3 270 8 270 4 0 54 -73
111 -163 258 -405 233 -372 280 -375 l41 -3 0 310 0 311 -30 0 -30 0 -2 -267
-3 -268 -112 175 c-62 96 -138 217 -170 267 l-58 93 -47 0 -48 0 0 -310z"/>
<path d="M14360 2105 l100 -194 0 -116 0 -115 30 0 30 0 0 111 0 111 71 136
c40 76 87 165 106 200 l33 62 -34 0 c-34 0 -36 -2 -93 -112 -32 -62 -68 -134
-81 -160 -22 -45 -42 -62 -42 -37 0 6 -33 78 -72 160 l-73 149 -37 0 -38 0
100 -195z"/>
</g>
</svg>
